<svg width="24" height="24" viewBox="0 0 24 24" fill="none" xmlns="http://www.w3.org/2000/svg">
<path d="M5 22C4.45 22 3.979 21.8043 3.587 21.413C3.19567 21.021 3 20.55 3 20V6C3 5.45 3.19567 4.97933 3.587 4.588C3.979 4.196 4.45 4 5 4H6V3C6 2.71667 6.09567 2.479 6.287 2.287C6.479 2.09567 6.71667 2 7 2C7.28333 2 7.521 2.09567 7.713 2.287C7.90433 2.479 8 2.71667 8 3V4H16V3C16 2.71667 16.096 2.479 16.288 2.287C16.4793 2.09567 16.7167 2 17 2C17.2833 2 17.5207 2.09567 17.712 2.287C17.904 2.479 18 2.71667 18 3V4H19C19.55 4 20.021 4.196 20.413 4.588C20.8043 4.97933 21 5.45 21 6V12H19V10H5V20H12V22H5ZM22.125 17L20 14.875L20.725 14.15C20.9083 13.9667 21.1417 13.875 21.425 13.875C21.7083 13.875 21.9417 13.9667 22.125 14.15L22.85 14.875C23.0333 15.0583 23.125 15.2917 23.125 15.575C23.125 15.8583 23.0333 16.0917 22.85 16.275L22.125 17ZM14 22.5V21.3C14 21.1667 14.025 21.0377 14.075 20.913C14.125 20.7877 14.2 20.675 14.3 20.575L19.3 15.575L21.425 17.7L16.425 22.7C16.325 22.8 16.2127 22.875 16.088 22.925C15.9627 22.975 15.8333 23 15.7 23H14.5C14.3667 23 14.25 22.95 14.15 22.85C14.05 22.75 14 22.6333 14 22.5Z" fill="white"/>
</svg>
